<svg width="1299" height="661" viewBox="0 0 1299 661" fill="none" xmlns="http://www.w3.org/2000/svg">
<rect x="266.875" y="301.234" width="636.756" height="24.2412" fill="#C0CCED"/>
<path d="M717.5 102.5L772.5 301.5H781.5L723.5 98L594.5 28.5L589.5 33L717.5 102.5Z" fill="url(#paint0_linear_1191_71)"/>
<path d="M595.5 28.9996C585.5 21.7996 543 38.3329 523 47.4996L572 93.9995C584 75.3329 605.5 36.1996 595.5 28.9996Z" fill="url(#paint1_linear_1191_71)"/>
<path d="M676.13 301.235H550.496H453.142V276.216H527.109L589.654 162.003H742.73L676.13 301.235Z" fill="#E7EEFF"/>
<path d="M665.5 282.5L549.5 278.5H541.5L598 178H718L665.5 282.5Z" fill="#CDD9F7"/>
<path d="M742.5 162L673.955 301.235H689.184L753.905 166.354L742.5 162Z" fill="#D1DBF4"/>
<path d="M742.483 162.003H589.111L585.848 169.073L738.676 171.249L742.483 162.003Z" fill="#D1DBF4"/>
<path d="M252.453 640.612L349.899 325.004H375.368L264.633 640.612H252.453Z" fill="#EFF4FF"/>
<path d="M939.91 640.612L842.463 325.004H816.994L927.729 640.612H939.91Z" fill="url(#paint2_linear_1191_71)"/>
<path d="M575.488 641.001H567C576.549 610.683 598.616 543.492 610.498 517.263C625.351 484.477 631.717 470.727 648.692 465.439C665.667 460.152 709.165 459.094 724.018 467.555C735.901 474.323 745.944 495.757 749.481 505.628L797.222 641.001H787.674C771.76 596.934 739.296 506.898 736.749 499.283C733.567 489.764 721.896 476.015 711.287 470.727C700.678 465.439 666.728 465.439 646.57 473.899C630.444 480.668 592.463 588.12 575.488 641.001Z" fill="url(#paint3_linear_1191_71)"/>
<path d="M629.154 641.001H620.667C630.215 610.683 652.283 543.492 664.165 517.263C679.018 484.477 685.384 470.727 702.359 465.439C719.334 460.152 762.832 459.094 777.685 467.555C789.567 474.323 799.611 495.757 803.147 505.628L850.889 641.001H841.341C825.427 596.934 792.962 506.898 790.416 499.283C787.233 489.764 775.563 476.015 764.954 470.727C754.344 465.439 720.395 465.439 700.237 473.899C684.111 480.668 646.129 588.12 629.154 641.001Z" fill="url(#paint4_linear_1191_71)"/>
<path d="M696.408 460.379C660.86 440.917 631.518 460.027 621.291 472.014C618.752 476.244 620.233 477.303 621.291 477.304H762.004C767.646 478.362 781.894 477.727 793.744 466.727C808.555 452.976 791.628 413.84 786.338 396.916C781.048 379.992 808.555 350.375 806.439 344.028C804.323 337.682 779.99 337.682 751.424 352.49C722.858 367.299 708.046 422.301 708.046 443.456C708.046 460.38 700.288 461.79 696.408 460.379Z" fill="url(#paint5_linear_1191_71)"/>
<path d="M1101.21 635.577C1110.53 634.859 1116.44 628.096 1118.23 624.804H1146.01C1151.02 629.831 1149.29 646.052 1147.8 653.534H1068.06V647.249C1072.54 637.373 1089.56 636.475 1101.21 635.577Z" fill="#021952"/>
<path d="M1128.98 447.934C1130.42 427.105 1143.32 349.474 1149.59 313.263H1227.54C1213.5 371.022 1184.17 493.184 1179.16 519.759C1174.14 546.335 1163.33 600.263 1158.55 623.905C1139.2 631.088 1119.43 626.898 1111.96 623.905C1117.04 573.927 1127.55 468.764 1128.98 447.934Z" fill="url(#paint6_linear_1191_71)"/>
<path d="M1217.68 644.555C1220.55 638.809 1221.26 627.796 1221.26 623.008H1245.45C1244.56 628.395 1245.45 639.168 1248.14 644.555C1250.29 648.865 1250.83 655.928 1250.83 658.92C1241.51 661.075 1223.06 659.818 1214.99 658.92C1214.69 656.526 1214.81 650.301 1217.68 644.555Z" fill="#021952"/>
<path d="M1199.76 459.607C1196.9 441.65 1189.61 357.555 1186.32 317.752C1196.18 319.548 1204.24 315.957 1207.83 315.957C1210.69 315.957 1246.65 314.76 1264.27 314.161C1264.27 324.935 1259.49 415.614 1257.1 459.607V622.111C1239.18 627.857 1220.97 624.505 1214.1 622.111C1210.51 575.424 1202.63 477.563 1199.76 459.607Z" fill="url(#paint7_linear_1191_71)"/>
<path d="M1142.42 170.511C1130.24 181.285 1121.22 225.876 1118.23 246.825C1118.95 250.416 1135.26 251.913 1143.32 252.212L1140.08 329.93C1152.03 332.324 1185.3 331.355 1199.19 331.355C1220.4 331.355 1257.9 334.049 1264.17 331.355C1269.19 329.2 1261.28 265.978 1257.1 243.234C1269.94 242.635 1295.98 240.899 1297.42 238.745C1299.21 236.051 1283.98 170.511 1265.16 161.533C1250.11 154.35 1219.47 150.759 1206.03 149.861C1189.91 152.255 1154.61 159.737 1142.42 170.511Z" fill="url(#paint8_linear_1191_71)"/>
<path d="M1240.71 187.429C1236.73 175.268 1243.56 162.095 1247.47 157.028C1251.08 157.028 1260.47 158.453 1269.13 164.153C1277.8 169.853 1292.3 215.612 1298.46 237.779L1262.36 241.579C1256.8 228.596 1244.68 199.589 1240.71 187.429Z" fill="url(#paint9_linear_1191_71)"/>
<path d="M1137.45 283.855H1111.47L1098.57 206.338L1150.01 205.954L1137.45 283.855Z" fill="#E1E9FE"/>
<path d="M1089.41 223.538C1083.41 218.119 1094.59 209.452 1100.94 205.797C1086.46 209.99 1078.96 199.668 1083.78 193.54C1087.05 189.384 1094.76 190.864 1098.72 192.248C1096.13 189.811 1093.48 184.52 1099.33 181.605C1105.55 178.509 1110.14 182.895 1111.66 185.476C1111.03 184.186 1110.91 180.766 1115.41 177.412C1119.91 174.057 1125.5 178.81 1127.74 181.605C1125.15 177.734 1124.54 167.82 1130.76 167.046C1135.91 166.405 1137.15 173.286 1136.75 178.395C1138.19 174.409 1142.56 169.936 1145.53 174.527C1148.53 179.172 1145.76 184.078 1143.97 185.476C1152.34 187.54 1152.39 195.798 1151.86 199.668C1155.7 198.593 1164.29 199.466 1162.36 206.949C1160.43 214.432 1152.84 211.71 1149.98 209.99C1151.95 213.323 1154.16 221.086 1147.3 225.473C1140.91 229.559 1135.42 220.714 1133.03 214.79C1134.61 219.358 1135.59 226.791 1129.34 227.731C1122.48 228.763 1122.91 218.699 1123.98 213.538C1113.69 218.183 1111.48 213.108 1111.66 209.99C1109.42 216.334 1104.37 227.924 1102.01 223.538C1100.95 221.568 1101.26 218.873 1102.14 216.191C1098.38 222.162 1093.46 227.189 1089.41 223.538Z" fill="white" stroke="#E1E9FE"/>
<path d="M1109.73 273.672C1107.49 271.408 1108.8 284.052 1109.73 290.657C1111.83 293.487 1113.92 293.488 1120.91 294.195C1127.9 294.903 1134.19 292.072 1139.08 288.534C1143.97 284.995 1146.06 282.165 1145.37 280.749C1144.67 279.334 1118.11 283.58 1115.32 283.58C1112.52 283.58 1112.52 276.503 1109.73 273.672Z" fill="url(#paint10_linear_1191_71)"/>
<path d="M1295.82 238.894L1263.29 242.529C1255.93 239.269 1240.28 234.405 1236.69 231.712C1233.11 229.018 1231.32 202.982 1227.73 201.186C1224.87 199.75 1206.23 194.602 1197.27 192.208C1195.18 194.004 1192.25 198.672 1197.27 202.982C1203.54 208.369 1208.02 210.164 1209.81 218.245C1211.61 226.325 1219.67 228.12 1221.46 231.712C1223.25 235.303 1228.63 248.77 1238.49 260.442C1248.34 272.113 1279.08 288.396 1288.94 284.805C1296.82 281.932 1298.51 255.953 1295.82 238.894Z" fill="url(#paint11_linear_1191_71)"/>
<path d="M1186.32 157.044L1190.8 131.905C1198.69 131.905 1208.42 119.935 1212.3 113.949C1213.02 131.187 1219.77 145.672 1223.06 150.759C1219.17 157.643 1209.26 171.409 1200.66 171.409C1192.06 171.409 1187.52 161.833 1186.32 157.044Z" fill="url(#paint12_linear_1191_71)"/>
<path d="M1178.41 133.583C1171.68 127.663 1173.74 99.6646 1175.61 86.4055C1177.48 78.08 1198.97 78.08 1206.45 79.9301C1212.43 81.4102 1212.06 94.731 1211.12 101.206C1212.06 99.9729 1214.67 97.5061 1217.66 97.5061C1221.4 97.5061 1220.47 107.682 1219.53 113.232C1218.79 117.672 1215.48 116.316 1213.93 115.082L1211.12 121.557C1206.45 132.658 1186.82 140.984 1178.41 133.583Z" fill="url(#paint13_linear_1191_71)"/>
<path d="M1190.8 86.118C1182.92 88.2727 1178.86 87.9125 1177.36 86.1168C1174.5 86.1168 1174.38 96.891 1174.68 104.073C1175.57 104.073 1175.93 105.15 1173.78 105.869C1171.63 106.587 1171.09 102.577 1171.09 100.483C1170.2 100.483 1167.69 99.7647 1164.82 96.8917C1161.95 94.0187 1164.82 88.5121 1166.61 86.118C1166.02 86.118 1164.46 85.2199 1163.03 81.6278C1161.6 78.0356 1164.82 74.1456 1166.61 72.6497C1166.02 71.7519 1165.18 69.238 1166.61 66.365C1168.05 63.492 1171.39 63.9708 1172.89 64.5694C1172.59 62.7737 1172.89 58.8234 1176.47 57.3869C1180.05 55.9504 1183.34 57.9854 1184.53 59.1825C1184.83 57.9854 1186.5 55.2321 1190.8 53.7956C1195.1 52.3591 1199.17 55.5912 1200.66 57.3869C1200.66 55.5912 1202.27 52 1208.72 52C1215.17 52 1216.19 58.5847 1215.89 61.8771C1216.49 60.68 1219.11 59.0041 1224.85 61.8771C1230.58 64.7501 1229.03 70.8552 1227.54 73.5486C1229.33 73.5486 1233.63 74.8055 1236.5 79.8333C1239.36 84.861 1234.11 88.5121 1231.12 89.7092C1232.31 89.7092 1235.06 91.1457 1236.5 96.8917C1237.93 102.638 1232.31 102.877 1229.33 102.279C1231.12 103.476 1233.99 106.947 1231.12 111.257C1228.25 115.566 1222.76 113.052 1220.37 111.257C1220.37 108.563 1220.01 102.638 1218.58 100.483C1216.79 97.7895 1214.1 99.5851 1211.41 102.279C1208.72 104.972 1211.41 92.4026 1208.72 87.9136C1206.03 83.4245 1200.66 83.4245 1190.8 86.118Z" fill="url(#paint14_linear_1191_71)"/>
<path d="M990.929 619.143C990.166 613.248 984.973 599.893 982.472 593.953L1003.31 582.639C1007.63 599.617 1020.56 615.871 1019.47 616.184C1018.39 616.498 1005.8 636.011 1001.93 638.894C998.833 641.2 990.227 635.024 986.312 631.648C988.169 629.936 991.692 625.037 990.929 619.143Z" fill="url(#paint15_linear_1191_71)"/>
<path d="M1001.3 636.722C1000.56 637.407 990.684 632.539 985.84 630.019C969.646 637.051 961.002 651.898 963.643 652.899C966.284 653.899 985.119 647.867 991.317 644.9C997.515 641.932 1026.83 637.575 1027.75 632.607C1028.48 628.632 1022.12 618.555 1018.84 614.013C1007.68 616.064 1002.23 635.866 1001.3 636.722Z" fill="#021952"/>
<path d="M886.11 617.678C887.468 611.892 887.3 597.564 887.046 591.123L910.53 587.854C908.606 605.267 914.998 625.028 913.872 624.94C912.746 624.853 894.104 638.697 889.467 640.035C885.758 641.106 879.872 632.3 877.393 627.763C879.733 626.813 884.753 623.465 886.11 617.678Z" fill="url(#paint16_linear_1191_71)"/>
<path d="M889.641 637.783C888.705 638.163 881.172 630.135 877.523 626.074C859.89 626.965 846.58 637.827 848.701 639.692C850.822 641.557 870.575 642.53 877.421 641.93C884.266 641.33 913.242 647.554 915.845 643.224C917.928 639.761 915.514 628.09 914.046 622.688C902.871 620.684 890.811 637.307 889.641 637.783Z" fill="#021952"/>
<path d="M869.717 386.525C869.717 356.629 881.44 308.766 887.301 288.571H949.128L930.409 592.057C927.195 593 919.746 594.322 915.662 592.057C910.557 589.226 892.406 599.417 887.301 593.755C882.196 588.093 876.524 590.358 868.015 592.057C861.209 593.416 855.348 588.471 853.268 585.828C857.806 573.372 869.717 423.894 869.717 386.525Z" fill="url(#paint17_linear_1191_71)"/>
<path d="M908.209 353.241C902.788 328.83 892.774 299.371 888.445 287.692L975.403 289.388C995.731 339.114 994.037 427.83 992.343 441.957C990.988 453.258 1024.53 537.077 1041.47 577.574C1037.7 582.471 1028.14 591.136 1020.01 586.615C1011.88 582.094 1003.45 588.499 1000.25 592.266C994.979 595.091 982.518 599.725 974.839 595.656C967.159 591.588 959.216 593.961 956.205 595.656C952.817 584.355 944.347 553.389 937.571 519.937C929.101 478.121 914.984 383.754 908.209 353.241Z" fill="url(#paint18_linear_1191_71)"/>
<path d="M914.651 109.432C912.838 104.889 910.496 95.0482 909.552 90.6953L946.943 109.432C945.432 107.16 942.977 102.051 945.244 99.7795C948.076 96.9407 954.875 101.483 956.574 107.16C957.934 111.703 956.008 114.352 954.875 115.109C955.252 119.462 954.761 129.644 949.776 135.549C943.544 142.93 931.647 145.201 928.247 144.065C924.848 142.93 924.848 137.252 924.282 135.549C923.715 133.845 923.149 134.981 921.449 133.845C919.749 132.71 924.848 129.871 925.981 128.168C927.114 126.464 920.316 128.168 919.183 129.303C918.05 130.439 918.616 127.6 918.05 125.897C917.483 124.193 914.651 126.464 912.384 125.329C910.118 124.193 916.917 115.109 914.651 109.432Z" fill="url(#paint19_linear_1191_71)"/>
<path d="M920.952 104.549C910.559 102.743 909.091 92.8893 909.655 88.188C911.915 80.2899 922.647 67.3139 936.768 66.1856C950.889 65.0573 957.667 70.1347 960.492 71.8272C963.316 73.5197 964.446 74.6481 964.446 71.8272C964.446 69.0063 968.4 53.21 976.872 52.0817C985.345 50.9533 997.207 61.6724 998.336 74.6481C999.24 85.0287 984.404 86.1194 976.872 85.3672C977.625 86.8716 979.584 91.4601 981.391 97.7787C983.65 105.677 976.38 127.78 965.648 130.037C957.062 131.842 955.818 127.848 954.5 124.463C953.558 125.027 951.763 117.443 953.571 115.637C955.83 113.381 954.901 105.916 952.642 103.096C950.382 100.275 948.298 99.5452 946.603 101.238C944.909 102.93 946.371 106.805 948.63 109.626C950.889 112.447 945.806 112.447 942.981 110.19C940.157 107.934 933.944 106.805 920.952 104.549Z" fill="url(#paint20_linear_1191_71)"/>
<path d="M926.262 146.981C932.607 147.882 936.375 149.179 933.466 143.426C952.05 141.172 955.94 122.577 955.562 113.562L956.129 115.252C956.317 115.628 956.922 117.957 957.828 124.268C958.735 130.578 961.102 149.508 972.433 154.016C968.476 160.18 953.687 173.737 948.248 176.442C941.45 179.823 926.71 182.38 922.744 173.364C919.571 166.151 923.618 150.737 926.262 146.981Z" fill="url(#paint21_linear_1191_71)"/>
<path d="M898.311 150.764C907.404 144.461 921.802 145.887 927.864 147.387C916.953 164.496 926.727 172.525 932.978 174.4C942.98 178.002 963.288 162.02 972.192 153.578C989.469 153.578 1002.12 165.209 1006.29 171.024C1003.83 171.211 996.289 175.188 985.832 189.595C975.375 204.002 975.034 262.755 976.17 290.331H885.807C886.944 280.201 888.991 256.677 888.081 243.621C886.945 227.301 886.945 158.643 898.311 150.764Z" fill="url(#paint22_linear_1191_71)"/>
<path d="M929.881 260.003L861.531 274.963L817.471 161.264L893.729 142.114L929.881 260.003Z" fill="#DBE3FF"/>
<path d="M920.949 261.351L854.645 282.586L799.003 187.671L872.721 161.814L920.949 261.351Z" fill="#F5F8FF"/>
<path d="M852.732 245.951C848.216 247.318 836.926 245.117 832.409 242.84C829.587 253.089 851.603 269.866 855.555 272.144C859.506 274.422 875.313 278.977 877.007 277.838C878.7 276.699 866.281 273.283 865.716 272.144C865.152 271.005 877.007 275.56 879.829 274.422C882.652 273.283 869.103 269.866 867.974 268.158C866.845 266.45 883.781 270.436 885.475 268.728C887.168 267.019 869.668 264.172 869.103 262.464C868.539 260.756 885.475 265.881 886.604 264.172C887.733 262.464 877.007 260.187 870.797 257.909C864.587 255.631 865.152 252.784 867.41 250.507C869.668 248.229 876.442 249.368 877.007 245.951C877.571 242.535 858.377 244.243 852.732 245.951Z" fill="url(#paint23_linear_1191_71)"/>
<path d="M910.005 248.596C908.187 241.859 912.278 230.443 914.55 225.577C928.755 228.946 965.118 238.49 966.823 238.49C968.527 238.49 967.391 221.086 972.505 199.751C977.618 178.417 996.368 161.574 1007.73 170.557C1019.1 179.54 1010 241.297 1007.73 251.964C1005.46 262.631 1004.89 278.913 976.482 280.597C953.755 281.945 922.694 259.824 910.005 248.596Z" fill="url(#paint24_linear_1191_71)"/>
<path d="M893.895 218.548C897.461 221.266 908.01 225.344 912.838 227.043L913.95 227.609C911.721 230.781 910.049 240.257 909.492 244.599C906.149 242.9 898.795 239.502 896.12 239.502C892.777 239.502 883.306 240.068 880.52 240.635C877.734 241.201 869.934 238.936 867.148 237.803C864.362 236.671 859.348 232.706 860.462 232.14C861.576 231.574 863.805 233.839 867.148 234.972C870.491 236.104 873.834 235.538 875.505 235.538C877.177 235.538 873.834 234.405 869.934 233.839C866.034 233.273 863.806 232.706 862.134 231.007C860.463 229.308 859.906 227.609 861.02 227.609C862.134 227.609 863.806 229.875 865.477 230.441C867.149 231.007 875.506 231.007 876.064 230.441C876.622 229.875 867.15 229.308 865.478 228.176C863.807 227.043 861.021 224.778 861.578 223.645C862.135 222.512 862.693 224.211 865.478 225.344C868.263 226.477 874.95 226.477 876.064 226.477C877.178 226.477 875.507 225.344 873.278 224.778C871.05 224.211 863.25 221.38 862.693 219.681C862.136 217.982 864.922 219.681 869.379 220.813C873.836 221.946 882.194 221.946 885.537 220.813C888.88 219.681 881.637 215.716 879.409 212.884C877.18 210.053 889.438 215.15 893.895 218.548Z" fill="url(#paint25_linear_1191_71)"/>
<path d="M419.368 280.266C420.397 285.413 472.939 290.989 499.082 293.134H528.654V320.155C497.368 322.728 431.711 327.618 419.368 326.589C407.025 325.559 380.797 308.145 369.225 299.567L352.511 385.778L222.654 380.631L226.511 356.183C238.082 321.442 283.082 239.091 301.082 217.217C315.482 199.717 332.797 194.485 339.654 194.056C350.368 197.916 372.825 206.666 376.939 210.783C382.082 215.93 418.082 273.833 419.368 280.266Z" fill="url(#paint26_linear_1191_71)"/>
<path d="M372.374 210.477C383.053 210.905 409.219 257.646 420.967 280.964C422.71 284.381 487.01 290.474 518.5 293.5V321C488.063 323.314 424.384 326.994 416.694 327.421C407.083 327.955 367.568 301.256 352.082 267.614C336.596 233.973 359.024 209.943 372.374 210.477Z" fill="url(#paint27_linear_1191_71)"/>
<path d="M600.383 286.866C601.656 283.066 577.477 289.4 574.932 290.667V297C582.992 294.889 599.365 289.907 600.383 286.866Z" fill="#FFC8BD"/>
<path d="M578.409 288.541C573.245 289.54 546.132 293.118 533.221 294.782H529.347L526.765 317.245C533.22 317.661 548.455 318.493 557.751 318.493C569.37 318.493 578.409 304.764 580.99 303.516C583.571 302.268 608.102 320.989 610.685 318.493C612.068 317.155 605.806 312.01 599.192 307.258C606.357 312.014 613.857 316.677 614.559 315.999C615.85 314.751 584.864 287.293 578.409 288.541Z" fill="url(#paint28_linear_1191_71)"/>
<path d="M535.265 320.268V293.223H518.265V321.556L535.265 320.268Z" fill="url(#paint29_linear_1191_71)"/>
<path d="M523.931 592.984L520.068 566.167L481.431 576.383L485.295 595.538C488.729 598.518 498.174 604.733 508.477 605.754C518.78 606.776 523.073 597.667 523.931 592.984Z" fill="url(#paint30_linear_1191_71)"/>
<path d="M485.009 593.985C509.731 609.188 520.575 598.324 524.008 590.723C527.871 594.523 538.172 603.645 543.323 609.727C549.761 617.328 572.937 622.396 584.525 623.663C593.796 624.677 594.397 636.755 593.539 642.667C570.791 642.245 523.493 641.147 516.282 640.133C509.072 639.12 487.526 637.177 477.654 636.332V613.528C477.654 600.351 482.863 594.829 485.009 593.985Z" fill="#021952"/>
<path d="M273.588 601.112L298.209 570.152C288.879 552.609 270.132 548.223 261.925 548.223L242.487 576.602L273.588 601.112Z" fill="url(#paint31_linear_1191_71)"/>
<path d="M264.263 579.179C253.901 568.969 241.812 573.223 237.063 576.627C232.313 578.754 222.297 584.285 220.224 589.39C217.634 595.772 227.996 613.64 237.063 617.469C246.129 621.298 257.787 649.376 268.148 651.929C276.438 653.971 313.05 652.779 330.32 651.929V649.376C329.025 642.995 325.139 640.442 309.596 639.166C294.053 637.889 287.577 622.574 281.101 611.087C274.625 599.6 277.215 591.942 264.263 579.179Z" fill="#021952"/>
<path d="M303.215 570.89L360.993 500.155L391.808 466.716C396.516 460.286 404.648 442.024 399.512 420.417C394.376 398.811 366.557 399.411 353.289 402.412C320.763 449.569 255.709 544.654 255.709 547.74C255.709 550.827 287.38 564.459 303.215 570.89Z" fill="url(#paint32_linear_1191_71)"/>
<path d="M247.541 379.524L262.301 381.055L356.248 384.907C390.485 386.191 461.529 390.043 471.801 395.179C484.64 401.599 492.344 434.981 498.763 465.796C505.183 496.611 528.297 563.376 529.581 568.512C530.608 572.621 486.354 576.216 464.099 577.5C464.955 572.792 464.356 559.781 455.111 545.401C443.556 527.426 439.704 499.179 429.432 481.204C421.215 466.823 417.285 468.286 414.025 468.364C360.099 469.648 246.856 469.391 225.285 458.092C203.715 446.794 213.73 402.027 221.434 381.055L247.541 379.524Z" fill="url(#paint33_linear_1191_71)"/>
<path d="M375.267 211.055L390.765 184.06C377.333 176.861 363.643 169.919 361.06 164.777C361.06 177.632 342.979 191.773 341.687 194.344C340.654 196.401 363.643 206.342 375.267 211.055Z" fill="url(#paint34_linear_1191_71)"/>
<path d="M417.545 137.174C416.528 128.931 409.493 121.719 406.103 119.143C367.965 112.703 360.332 156.494 362.874 168.086C365.417 179.677 406.103 200.285 411.186 195.133C416.269 189.981 415.003 173.237 417.545 168.086C420.088 162.934 426.445 165.51 422.631 161.646C418.817 157.782 418.817 147.478 417.545 137.174Z" fill="url(#paint35_linear_1191_71)"/>
<path d="M387.07 127.062C387.07 123.206 393.471 118.065 402.433 124.492C408.586 128.904 413.922 124.164 416.66 120.023C419.599 116.371 424.453 108.296 420.356 105.211C415.235 101.355 413.955 105.211 404.993 105.211C396.032 105.211 390.911 96.2134 379.389 93.6427C367.867 91.0719 343.542 96.2134 343.542 109.067C343.542 121.921 352.504 157.911 352.504 163.053C352.504 168.194 362.746 169.48 362.746 164.338C362.746 159.197 366.586 148.914 366.586 145.058C366.586 141.201 370.427 132.204 374.268 134.775C378.108 137.345 376.828 150.199 379.389 146.343C381.949 142.487 387.07 130.918 387.07 127.062Z" fill="url(#paint36_linear_1191_71)"/>
<path d="M437.125 654H447.432C435.837 617.186 409.041 535.596 394.612 503.747C376.577 463.936 368.847 447.238 348.234 440.818C327.622 434.398 274.803 433.113 256.767 443.387C242.338 451.606 230.143 477.633 225.848 489.619L167.876 654H179.47C198.795 600.49 238.216 491.16 241.308 481.914C245.172 470.356 259.343 453.659 272.226 447.238C285.109 440.817 326.334 440.817 350.811 451.091C370.393 459.31 416.513 589.788 437.125 654Z" fill="url(#paint37_linear_1191_71)"/>
<path d="M371.958 654H382.265C370.67 617.186 343.874 535.596 329.445 503.747C311.41 463.936 303.68 447.238 283.067 440.818C262.455 434.398 209.636 433.113 191.6 443.387C177.171 451.606 164.976 477.633 160.681 489.619L102.709 654H114.303C133.628 600.49 173.049 491.16 176.141 481.914C180.005 470.356 194.176 453.659 207.059 447.238C219.942 440.817 261.167 440.817 285.644 451.091C305.226 459.31 351.346 589.788 371.958 654Z" fill="url(#paint38_linear_1191_71)"/>
<path d="M290.293 434.675C333.459 411.042 369.088 434.247 381.507 448.803C384.59 453.94 382.791 455.226 381.507 455.227H210.641C203.789 456.511 186.489 455.74 172.1 442.383C154.114 425.685 174.669 378.162 181.093 357.612C187.516 337.062 154.114 301.098 156.684 293.392C159.253 285.685 188.801 285.685 223.488 303.667C258.175 321.649 276.161 388.438 276.161 414.126C276.161 434.676 285.582 436.388 290.293 434.675Z" fill="url(#paint39_linear_1191_71)"/>
<rect x="53" y="111" width="111" height="83" rx="4" fill="#D5DCF0"/>
<rect x="64" y="121" width="89" height="63" rx="4" fill="url(#paint40_linear_1191_71)"/>
<rect x="122" width="110.842" height="93" rx="4" fill="#D5DCF0"/>
<rect x="131" y="8" width="92" height="78" rx="4" fill="url(#paint41_linear_1191_71)"/>
<path d="M42.9709 570.031C70.5709 569.631 80.4709 573.198 81.9709 575.031C83.9709 576.214 82.8042 579.857 81.9709 581.531L70.4709 643.031C40.4709 647.431 17.3042 643.865 9.47089 641.531C7.47089 622.198 2.8709 582.331 0.470894 577.531C-2.52911 571.531 8.47089 570.531 42.9709 570.031Z" fill="url(#paint42_linear_1191_71)"/>
<path d="M7.88326 574.656C41.8116 569.846 66.3154 572.652 74.3262 574.656C87.5206 580.669 22.0201 579.065 13.0667 577.863C5.90411 576.901 6.62665 575.324 7.88326 574.656Z" fill="#A9B6D2"/>
<path d="M42.4736 575.223L43.8712 540.477C50.393 537.544 64.9274 529.657 70.8902 521.564C74.4617 524.496 82.8158 529.569 87.6606 526.402C92.5054 523.236 79.4307 521.564 72.2877 521.124C77.412 520.978 88.3128 519.277 90.9215 513.647C93.5302 508.018 79.2754 515.407 71.8219 519.805C77.5673 511.448 89.1513 493.415 89.524 488.137C93.7166 487.991 102.288 486.202 103.034 480.22C103.779 474.239 94.3378 480.954 89.524 485.059C92.9402 480.514 99.4 470.105 97.9093 464.827C96.0459 458.23 87.6607 469.665 88.1265 483.3C87.3501 478.755 84.6793 470.632 80.2072 474.503C75.735 478.373 83.3127 485.205 87.6606 488.137C83.0022 497.374 72.6605 516.902 68.561 521.124C64.4616 525.347 48.8402 534.612 41.542 538.717C39.8339 519.072 37.9083 475.998 43.8712 460.868C49.834 445.738 56.9149 430.52 59.71 424.803C64.679 424.363 75.176 421.812 77.4121 415.126C79.6481 408.441 68.0952 415.566 62.0392 419.965C67.0082 414.98 76.3872 403.691 74.1512 398.413C71.6367 392.478 63.8439 406.832 62.3048 412.016C63.2292 406.779 63.5578 398.413 58.7783 398.413C53.5608 398.413 55.0515 416.006 56.449 424.803L42.0078 459.549C38.9022 456.91 32.4114 449.345 31.2934 440.196C34.0885 436.091 38.8401 426.738 35.486 422.164C32.1319 417.589 29.1195 428.761 28.0325 434.919C28.0325 427.148 26.5418 411.96 20.579 413.367C14.6161 414.775 20.8895 428.321 24.7716 434.919C18.8709 429.347 6.51043 419.877 4.27438 426.562C2.03831 433.247 19.1814 438.437 28.0325 440.196C29.1195 445.767 32.8773 457.701 39.2128 460.868C37.9705 467.759 35.486 483.739 35.486 492.536C35.486 503.531 36.8835 535.638 37.3494 543.995C37.7221 550.68 36.2624 567.599 35.486 575.223C36.5729 575.809 39.4922 576.63 42.4736 575.223Z" fill="#4F69AD"/>
<defs>
<linearGradient id="paint0_linear_1191_71" x1="685.5" y1="28.5" x2="685.5" y2="301" gradientUnits="userSpaceOnUse">
<stop stop-color="#D1DBF4"/>
<stop offset="1" stop-color="#D1DBF4"/>
</linearGradient>
<linearGradient id="paint1_linear_1191_71" x1="560.539" y1="27.2324" x2="560.539" y2="93.9995" gradientUnits="userSpaceOnUse">
<stop stop-color="#D1DBF4"/>
<stop offset="1" stop-color="#F4F7FF"/>
</linearGradient>
<linearGradient id="paint2_linear_1191_71" x1="878.452" y1="325.004" x2="878.452" y2="640.612" gradientUnits="userSpaceOnUse">
<stop stop-color="#F0F4FF"/>
<stop offset="1" stop-color="#DCE6FE"/>
</linearGradient>
<linearGradient id="paint3_linear_1191_71" x1="682.111" y1="461.334" x2="682.111" y2="641.001" gradientUnits="userSpaceOnUse">
<stop stop-color="#F4F6FF"/>
<stop offset="1" stop-color="#DDE6FD"/>
</linearGradient>
<linearGradient id="paint4_linear_1191_71" x1="735.778" y1="461.334" x2="735.778" y2="641.001" gradientUnits="userSpaceOnUse">
<stop stop-color="#F4F6FF"/>
<stop offset="1" stop-color="#DDE6FD"/>
</linearGradient>
<linearGradient id="paint5_linear_1191_71" x1="713.222" y1="340" x2="713.222" y2="477.667" gradientUnits="userSpaceOnUse">
<stop stop-color="#F3F6FE"/>
<stop offset="1" stop-color="#DAE4FD"/>
</linearGradient>
<linearGradient id="paint6_linear_1191_71" x1="1169.75" y1="313.263" x2="1169.75" y2="627.871" gradientUnits="userSpaceOnUse">
<stop stop-color="#082969"/>
<stop offset="1" stop-color="#14428A"/>
</linearGradient>
<linearGradient id="paint7_linear_1191_71" x1="1225.3" y1="314.161" x2="1225.3" y2="625.283" gradientUnits="userSpaceOnUse">
<stop stop-color="#072767"/>
<stop offset="1" stop-color="#0A306B"/>
</linearGradient>
<linearGradient id="paint8_linear_1191_71" x1="1207.9" y1="149.861" x2="1207.9" y2="318.74" gradientUnits="userSpaceOnUse">
<stop stop-color="#4F96FB"/>
<stop offset="1" stop-color="#3E7BDE"/>
</linearGradient>
<linearGradient id="paint9_linear_1191_71" x1="1268.98" y1="157.028" x2="1268.98" y2="241.579" gradientUnits="userSpaceOnUse">
<stop stop-color="#7CC0FF"/>
<stop offset="1" stop-color="#74B1FF"/>
</linearGradient>
<linearGradient id="paint10_linear_1191_71" x1="1127" y1="273.404" x2="1127" y2="294.304" gradientUnits="userSpaceOnUse">
<stop stop-color="#FFB9AB"/>
<stop offset="1" stop-color="#FFB7A9"/>
</linearGradient>
<linearGradient id="paint11_linear_1191_71" x1="1246.71" y1="192.208" x2="1246.71" y2="294.008" gradientUnits="userSpaceOnUse">
<stop stop-color="#FFC1B5"/>
<stop offset="1" stop-color="#FFB4A6"/>
</linearGradient>
<linearGradient id="paint12_linear_1191_71" x1="1204.69" y1="113.949" x2="1204.69" y2="171.409" gradientUnits="userSpaceOnUse">
<stop stop-color="#FFC5B9"/>
<stop offset="1" stop-color="#FFCEC4"/>
</linearGradient>
<linearGradient id="paint13_linear_1191_71" x1="1197.07" y1="78.9346" x2="1197.07" y2="136.395" gradientUnits="userSpaceOnUse">
<stop stop-color="#FFC2B5"/>
<stop offset="1" stop-color="#FFD0C6"/>
</linearGradient>
<linearGradient id="paint14_linear_1191_71" x1="1200" y1="52" x2="1200" y2="113.636" gradientUnits="userSpaceOnUse">
<stop stop-color="#253452"/>
<stop offset="1" stop-color="#23314E"/>
</linearGradient>
<linearGradient id="paint15_linear_1191_71" x1="991.966" y1="585.917" x2="1006.91" y2="637.608" gradientUnits="userSpaceOnUse">
<stop stop-color="#FDA99A"/>
<stop offset="1" stop-color="#FFB5A8"/>
</linearGradient>
<linearGradient id="paint16_linear_1191_71" x1="898.759" y1="586.937" x2="894.579" y2="640.582" gradientUnits="userSpaceOnUse">
<stop stop-color="#FDA99A"/>
<stop offset="1" stop-color="#FFB5A8"/>
</linearGradient>
<linearGradient id="paint17_linear_1191_71" x1="901.198" y1="288.571" x2="901.198" y2="595.498" gradientUnits="userSpaceOnUse">
<stop stop-color="#051E57"/>
<stop offset="1" stop-color="#093C8B"/>
</linearGradient>
<linearGradient id="paint18_linear_1191_71" x1="964.957" y1="287.692" x2="964.957" y2="597.258" gradientUnits="userSpaceOnUse">
<stop stop-color="#031A52"/>
<stop offset="1" stop-color="#0A316C"/>
</linearGradient>
<linearGradient id="paint19_linear_1191_71" x1="933.297" y1="90.6953" x2="933.297" y2="144.342" gradientUnits="userSpaceOnUse">
<stop stop-color="#FB9D8D"/>
<stop offset="1" stop-color="#FFBAAE"/>
</linearGradient>
<linearGradient id="paint20_linear_1191_71" x1="953.964" y1="52" x2="953.964" y2="130.486" gradientUnits="userSpaceOnUse">
<stop stop-color="#283550"/>
<stop offset="1" stop-color="#101A30"/>
</linearGradient>
<linearGradient id="paint21_linear_1191_71" x1="947.008" y1="113.562" x2="947.008" y2="179.554" gradientUnits="userSpaceOnUse">
<stop stop-color="#F99787"/>
<stop offset="1" stop-color="#FDA999"/>
</linearGradient>
<linearGradient id="paint22_linear_1191_71" x1="946.049" y1="146.102" x2="946.049" y2="290.331" gradientUnits="userSpaceOnUse">
<stop stop-color="#509CFF"/>
<stop offset="1" stop-color="#4E8AFF"/>
</linearGradient>
<linearGradient id="paint23_linear_1191_71" x1="859.423" y1="242.84" x2="859.423" y2="278.018" gradientUnits="userSpaceOnUse">
<stop stop-color="#FEAB9D"/>
<stop offset="1" stop-color="#FFCCC4"/>
</linearGradient>
<linearGradient id="paint24_linear_1191_71" x1="961.467" y1="212.719" x2="984.228" y2="264.744" gradientUnits="userSpaceOnUse">
<stop stop-color="#6BB9FF"/>
<stop offset="1" stop-color="#65B1FF"/>
</linearGradient>
<linearGradient id="paint25_linear_1191_71" x1="887.126" y1="212.06" x2="887.126" y2="244.599" gradientUnits="userSpaceOnUse">
<stop stop-color="#FDA697"/>
<stop offset="1" stop-color="#FFB8AB"/>
</linearGradient>
<linearGradient id="paint26_linear_1191_71" x1="375.654" y1="194.056" x2="375.654" y2="385.778" gradientUnits="userSpaceOnUse">
<stop stop-color="#519AFF"/>
<stop offset="1" stop-color="#3B77D9"/>
</linearGradient>
<linearGradient id="paint27_linear_1191_71" x1="432.226" y1="210.469" x2="432.226" y2="327.429" gradientUnits="userSpaceOnUse">
<stop stop-color="#7EC4FF"/>
<stop offset="1" stop-color="#73AFFF"/>
</linearGradient>
<linearGradient id="paint28_linear_1191_71" x1="570.681" y1="288.5" x2="570.681" y2="318.722" gradientUnits="userSpaceOnUse">
<stop stop-color="#FFAEA1"/>
<stop offset="1" stop-color="#FFC8BD"/>
</linearGradient>
<linearGradient id="paint29_linear_1191_71" x1="526.765" y1="293.223" x2="526.765" y2="321.556" gradientUnits="userSpaceOnUse">
<stop stop-color="#7DC1FF"/>
<stop offset="1" stop-color="#488CF0"/>
</linearGradient>
<linearGradient id="paint30_linear_1191_71" x1="502.681" y1="566.167" x2="502.681" y2="605.834" gradientUnits="userSpaceOnUse">
<stop stop-color="#FFAB9D"/>
<stop offset="1" stop-color="#FFD2CA"/>
</linearGradient>
<linearGradient id="paint31_linear_1191_71" x1="270.348" y1="548.223" x2="270.348" y2="601.112" gradientUnits="userSpaceOnUse">
<stop stop-color="#FFAB9D"/>
<stop offset="1" stop-color="#FFD2CA"/>
</linearGradient>
<linearGradient id="paint32_linear_1191_71" x1="328.431" y1="400.89" x2="328.431" y2="570.89" gradientUnits="userSpaceOnUse">
<stop stop-color="#0D3275"/>
<stop offset="1" stop-color="#134088"/>
</linearGradient>
<linearGradient id="paint33_linear_1191_71" x1="370.931" y1="381.055" x2="502.667" y2="569.852" gradientUnits="userSpaceOnUse">
<stop stop-color="#041D55"/>
<stop offset="0.851504" stop-color="#293E6F"/>
</linearGradient>
<linearGradient id="paint34_linear_1191_71" x1="366.209" y1="164.777" x2="366.209" y2="211.055" gradientUnits="userSpaceOnUse">
<stop stop-color="#FFA799"/>
<stop offset="1" stop-color="#FFDDD7"/>
</linearGradient>
<linearGradient id="paint35_linear_1191_71" x1="393.126" y1="118.5" x2="393.126" y2="195.944" gradientUnits="userSpaceOnUse">
<stop stop-color="#FEA495"/>
<stop offset="1" stop-color="#FFBEB3"/>
</linearGradient>
<linearGradient id="paint36_linear_1191_71" x1="382.737" y1="93" x2="382.737" y2="167.611" gradientUnits="userSpaceOnUse">
<stop stop-color="#283858"/>
<stop offset="1" stop-color="#1D2942"/>
</linearGradient>
<linearGradient id="paint37_linear_1191_71" x1="307.654" y1="435.833" x2="307.654" y2="654" gradientUnits="userSpaceOnUse">
<stop stop-color="#F4F6FF"/>
<stop offset="1" stop-color="#DDE6FD"/>
</linearGradient>
<linearGradient id="paint38_linear_1191_71" x1="242.487" y1="435.833" x2="242.487" y2="654" gradientUnits="userSpaceOnUse">
<stop stop-color="#F4F6FF"/>
<stop offset="1" stop-color="#DDE6FD"/>
</linearGradient>
<linearGradient id="paint39_linear_1191_71" x1="269.876" y1="288.5" x2="269.876" y2="455.667" gradientUnits="userSpaceOnUse">
<stop stop-color="#F3F6FE"/>
<stop offset="1" stop-color="#DAE4FD"/>
</linearGradient>
<linearGradient id="paint40_linear_1191_71" x1="108.5" y1="121" x2="108.5" y2="184" gradientUnits="userSpaceOnUse">
<stop stop-color="#F1F5FF"/>
<stop offset="1" stop-color="#EDF2FF"/>
</linearGradient>
<linearGradient id="paint41_linear_1191_71" x1="177" y1="8" x2="177" y2="86" gradientUnits="userSpaceOnUse">
<stop stop-color="#F1F5FF"/>
<stop offset="1" stop-color="#EDF2FF"/>
</linearGradient>
<linearGradient id="paint42_linear_1191_71" x1="41.5375" y1="570" x2="41.5375" y2="645.118" gradientUnits="userSpaceOnUse">
<stop offset="0.00520833" stop-color="#F8F8FE"/>
<stop offset="0.953125" stop-color="#D4E0FB"/>
</linearGradient>
</defs>
</svg>
