<svg width="15" height="20" viewBox="0 0 15 20" fill="none" xmlns="http://www.w3.org/2000/svg">
<path d="M5.20667 10.7158L7.33333 9.1025L9.45083 10.7158L8.64417 8.10333L10.7708 6.41667H8.1675L7.33333 3.84083L6.49917 6.41667H3.89583L6.01333 8.10333L5.20667 10.7158ZM14.6667 7.33333C14.6667 3.28167 11.385 0 7.33333 0C3.28167 0 0 3.28167 0 7.33333C0 9.19417 0.696667 10.8808 1.83333 12.1733V19.25L7.33333 17.4167L12.8333 19.25V12.1733C13.97 10.8808 14.6667 9.19417 14.6667 7.33333ZM7.33333 1.83333C10.3675 1.83333 12.8333 4.29917 12.8333 7.33333C12.8333 10.3675 10.3675 12.8333 7.33333 12.8333C4.29917 12.8333 1.83333 10.3675 1.83333 7.33333C1.83333 4.29917 4.29917 1.83333 7.33333 1.83333ZM7.33333 15.5833L3.66667 16.5183V13.6767C4.74833 14.3 5.995 14.6667 7.33333 14.6667C8.67167 14.6667 9.91833 14.3 11 13.6767V16.5183L7.33333 15.5833Z" fill="#705CCF"/>
</svg>
