<svg width="150" height="163" viewBox="0 0 150 163" fill="none" xmlns="http://www.w3.org/2000/svg">
<path d="M127.778 0H56.2222C47.7569 0 40.8569 6.94024 41.1764 15.3449C41.2403 17.0322 41.3042 18.7195 41.4 20.375H7.66667C3.41806 20.375 0 23.7814 0 28.0156C0 57.4957 10.7014 77.998 25.0764 91.9103C39.2278 105.632 56.4778 112.54 69.1917 116.042C76.6667 118.111 81.7778 124.319 81.7778 130.559C81.7778 137.213 76.3472 142.625 69.6708 142.625H61.3333C55.6792 142.625 51.1111 147.178 51.1111 152.812C51.1111 158.447 55.6792 163 61.3333 163H122.667C128.321 163 132.889 158.447 132.889 152.812C132.889 147.178 128.321 142.625 122.667 142.625H114.329C107.653 142.625 102.222 137.213 102.222 130.559C102.222 124.319 107.301 118.079 114.808 116.042C127.554 112.54 144.804 105.632 158.956 91.9103C173.299 77.998 184 57.4957 184 28.0156C184 23.7814 180.582 20.375 176.333 20.375H142.6C142.696 18.7195 142.76 17.0641 142.824 15.3449C143.143 6.94024 136.243 0 127.778 0ZM15.6208 35.6562H42.5819C45.4889 64.3404 51.9097 83.5057 59.1611 96.3355C51.2069 92.8336 42.9333 87.899 35.7778 80.9588C25.5556 71.0578 17.25 56.7635 15.6528 35.6562H15.6208ZM148.254 80.9588C141.099 87.899 132.825 92.8336 124.871 96.3355C132.122 83.5057 138.543 64.3404 141.45 35.6562H168.411C166.782 56.7635 158.476 71.0578 148.286 80.9588H148.254Z" fill="#F7F6FB"/>
</svg>
