<svg width="35" height="43" viewBox="0 0 35 43" fill="none" xmlns="http://www.w3.org/2000/svg">
<path d="M23.5368 2H5.83554C4.79355 2 3.79425 2.41393 3.05746 3.15072C2.32066 3.88751 1.90674 4.88682 1.90674 5.9288V37.3598C1.90674 38.4018 2.32066 39.4011 3.05746 40.1379C3.79425 40.8747 4.79355 41.2886 5.83554 41.2886H29.409C30.4509 41.2886 31.4502 40.8747 32.187 40.1379C32.9238 39.4011 33.3378 38.4018 33.3378 37.3598V11.801L23.5368 2Z" fill="white" stroke="#A2A4A8" stroke-width="3" stroke-linecap="round" stroke-linejoin="round"/>
<path d="M22.9004 2.63721V12.4382H32.7014" stroke="#A2A4A8" stroke-width="3" stroke-linecap="round" stroke-linejoin="round"/>
<path d="M1.3264 25.2195H21.9316C22.1481 25.2195 22.3625 25.2606 22.5625 25.3404C22.7625 25.4202 22.9442 25.5372 23.0973 25.6847C23.2503 25.8323 23.3718 26.0074 23.4546 26.2001C23.5374 26.3929 23.5801 26.5994 23.5801 26.8081V34.7491C23.5801 35.1704 23.4064 35.5745 23.0973 35.8724C22.7881 36.1703 22.3688 36.3377 21.9316 36.3377H1.3264C0.416241 36.3377 0.502168 36.4205 0.502168 35.5434V26.0125C0.50349 25.1354 0.416241 25.2195 1.3264 25.2195Z" fill="#DE2013"/>
<path d="M6.16087 32.7397V28.5097H8.03887C8.50287 28.5097 8.85687 28.6217 9.10087 28.8457C9.34487 29.0697 9.46687 29.3777 9.46687 29.7697C9.46687 30.1577 9.34487 30.4657 9.10087 30.6937C8.85687 30.9217 8.50287 31.0357 8.03887 31.0357H6.93487V32.7397H6.16087ZM6.93487 30.4237H7.94887C8.20487 30.4237 8.39687 30.3677 8.52487 30.2557C8.65287 30.1397 8.71687 29.9777 8.71687 29.7697C8.71687 29.5617 8.65287 29.4017 8.52487 29.2897C8.39687 29.1737 8.20487 29.1157 7.94887 29.1157H6.93487V30.4237ZM10.157 32.7397V28.5097H11.693C12.177 28.5097 12.585 28.5937 12.917 28.7617C13.253 28.9257 13.507 29.1657 13.679 29.4817C13.851 29.7937 13.937 30.1737 13.937 30.6217C13.937 31.0657 13.851 31.4457 13.679 31.7617C13.507 32.0777 13.253 32.3197 12.917 32.4877C12.585 32.6557 12.177 32.7397 11.693 32.7397H10.157ZM10.931 32.0977H11.645C12.157 32.0977 12.537 31.9757 12.785 31.7317C13.033 31.4877 13.157 31.1177 13.157 30.6217C13.157 30.1217 13.033 29.7517 12.785 29.5117C12.537 29.2677 12.157 29.1457 11.645 29.1457H10.931V32.0977ZM14.7273 32.7397V28.5097H17.5173V29.1157H15.5013V30.3157H17.3793V30.9217H15.5013V32.7397H14.7273Z" fill="#FCFDFF"/>
</svg>
