<svg width="400" height="389" viewBox="0 0 400 389" fill="none" xmlns="http://www.w3.org/2000/svg">
<path d="M31.8522 172.682C48.7913 195.812 76.1565 210.824 107.026 210.824C158.452 210.824 200.139 169.153 200.139 117.746C200.139 101.153 195.791 85.5672 188.183 72.0767" stroke="#867BC1" stroke-linejoin="round"/>
<path d="M184.235 65.7138C167.504 40.958 139.165 24.6772 107.026 24.6772C55.6 24.6772 13.913 66.3484 13.913 117.755C13.913 135.313 18.7826 151.742 27.2348 165.763" stroke="#867BC1" stroke-linejoin="round"/>
<path d="M76.7304 72.833C62.313 82.5685 52.8348 99.0492 52.8348 117.746C52.8348 147.665 77.0957 171.917 107.026 171.917C136.957 171.917 161.217 147.665 161.217 117.746C161.217 87.8273 136.957 63.5757 107.026 63.5757C98.6783 63.5757 90.7739 65.4619 83.7043 68.8346" stroke="#867BC1" stroke-linejoin="round"/>
<path d="M107.026 10.7695V224.74" stroke="#867BC1" stroke-linejoin="round"/>
<path d="M214.052 117.755H0" stroke="#867BC1" stroke-linejoin="round"/>
<path d="M280.574 27.9893C270.783 36.4121 264.591 48.8857 264.591 62.8108C264.591 88.1751 285.157 108.732 310.53 108.732C318.957 108.732 326.852 106.464 333.635 102.509" stroke="#867BC1" stroke-linejoin="round"/>
<path d="M338.974 98.8754C349.626 90.4612 356.47 77.4401 356.47 62.8109C356.47 37.4466 335.904 16.8892 310.53 16.8892C302.435 16.8892 294.826 18.984 288.217 22.6609" stroke="#867BC1" stroke-linejoin="round"/>
<path d="M329.435 81.7147C339.878 71.2764 339.878 54.3525 329.435 43.9142C318.993 33.4759 302.063 33.4759 291.62 43.9142C281.178 54.3525 281.178 71.2764 291.62 81.7147C302.063 92.153 318.993 92.153 329.435 81.7147Z" stroke="#867BC1" stroke-linejoin="round"/>
<path d="M310.53 10.0308V115.599" stroke="#867BC1" stroke-linejoin="round"/>
<path d="M363.339 62.8105H257.73" stroke="#867BC1" stroke-linejoin="round"/>
<path d="M259.548 280.604C245.426 288.436 235.861 303.5 235.861 320.789C235.861 346.153 256.426 366.71 281.8 366.71C290.313 366.71 298.287 364.398 305.13 360.356" stroke="#867BC1" stroke-linejoin="round"/>
<path d="M312.609 354.854C321.904 346.449 327.748 334.297 327.748 320.78C327.748 295.416 307.183 274.858 281.809 274.858C277.774 274.858 273.861 275.38 270.13 276.353" stroke="#867BC1" stroke-linejoin="round"/>
<path d="M300.708 339.687C311.15 329.249 311.15 312.325 300.708 301.886C290.265 291.448 273.335 291.448 262.893 301.886C252.451 312.325 252.451 329.249 262.893 339.687C273.335 350.125 290.265 350.125 300.708 339.687Z" stroke="#867BC1" stroke-linejoin="round"/>
<path d="M281.8 268V373.569" stroke="#867BC1" stroke-linejoin="round"/>
<path d="M334.609 320.789H229" stroke="#867BC1" stroke-linejoin="round"/>
<path d="M181.12 170.142C185.039 165.299 185.344 159.051 181.801 156.187C178.259 153.322 172.21 154.926 168.291 159.769C164.372 164.611 164.067 170.859 167.61 173.724C171.152 176.588 177.201 174.985 181.12 170.142Z" fill="#A8ABDA" stroke="#263238" stroke-linejoin="round"/>
<path d="M181.122 170.152C184.262 166.269 185.081 161.492 183.463 158.269C180.785 156.341 175.829 158.269 172.261 162.676C168.618 167.174 167.804 172.551 170.44 174.682C170.654 174.854 170.884 174.998 171.131 175.122C174.42 175.427 178.32 173.622 181.122 170.152Z" fill="white" stroke="#263238" stroke-linejoin="round"/>
<path d="M202.386 162.813C202.386 162.813 189.855 156.071 186.163 155.429C182.467 154.786 177.168 154.947 172.513 158.802C167.857 162.658 151.148 182.403 151.148 182.403L197.409 205.045L222.947 173.733L202.386 162.813Z" fill="#263238" stroke="#263238" stroke-linejoin="round"/>
<path d="M176.461 163.399C176.461 163.399 178.69 157.712 186.313 158.536" stroke="#A8ABDA" stroke-linejoin="round"/>
<path d="M185.285 166.159C185.285 166.159 187.139 163.273 192.705 162.657" stroke="#A8ABDA" stroke-linejoin="round"/>
<path d="M205.472 164.457L202.386 162.819C202.386 162.819 189.855 156.076 186.164 155.434C184.931 155.22 183.517 155.102 182.006 155.171L182.033 155.316L190.23 159.477L204.604 165.277L205.477 164.463L205.472 164.457Z" fill="#A8ABDA" stroke="#263238" stroke-linejoin="round"/>
<path d="M176.461 163.4L170.729 160.444C166.325 164.787 158.134 174.228 153.875 179.198L155.867 181.651C155.867 181.651 159.752 175.048 164.804 170.972C169.856 166.897 176.461 163.4 176.461 163.4Z" fill="#A8ABDA" stroke="#263238" stroke-linejoin="round"/>
<path d="M265.737 174.256L221.083 154.083C221.083 154.083 215.726 152.653 210.722 157.296C207.481 160.306 206.795 166.935 206.795 166.935C206.795 166.935 189.646 180.147 189.11 186.573C188.574 192.999 190.005 196.213 192.325 197.107C194.644 198.001 235.194 218.887 235.194 218.887L265.737 174.251V174.256Z" fill="#A8ABDA" stroke="#263238" stroke-linejoin="round"/>
<path d="M195.748 171.315L215.388 181.211L197.328 199.789L176.783 188.596L195.748 171.315Z" fill="#263238" stroke="#263238" stroke-linejoin="round"/>
<path d="M228.626 178.812C230.689 179.251 233.11 179.61 234.937 179.422C238.848 179.021 243.359 175.315 243.359 175.315L237.444 172.509C237.444 172.509 236.019 173.612 233.303 174.533C230.517 175.256 227.453 175.213 225.176 175.01C224.163 174.903 222.926 174.806 222.979 174.822C223.499 175.026 227.598 177.666 227.598 177.666C228.171 178.148 228.648 178.769 229.028 179.487C228.905 179.251 228.776 179.026 228.626 178.812Z" fill="#A8ABDA" stroke="#263238" stroke-linejoin="round"/>
<path d="M230.014 183.039C230.04 183.307 230.057 183.585 230.062 183.864" stroke="#263238" stroke-linejoin="round"/>
<path d="M229.081 179.595C229.183 179.799 229.28 180.008 229.365 180.222C229.28 180.008 229.183 179.793 229.081 179.595Z" fill="white" stroke="#263238" stroke-linejoin="round"/>
<path d="M229.885 182.085C229.928 182.337 229.965 182.6 229.992 182.862" stroke="#263238" stroke-linejoin="round"/>
<path d="M229.414 180.344C229.607 180.853 229.762 181.405 229.869 181.983" stroke="#263238" stroke-linejoin="round"/>
<path d="M234.942 179.429C233.11 179.617 230.689 179.258 228.631 178.819C230.48 181.518 230.608 186.161 228.664 190.756C228.573 190.97 228.476 191.179 228.38 191.388L232.141 190.252L243.37 175.322C243.37 175.322 238.859 179.028 234.948 179.429H234.942Z" fill="#263238" stroke="#263238" stroke-linejoin="round"/>
<path d="M279.023 182.058C279.023 182.058 277.164 179.616 275.203 179.434C273.237 179.257 271.63 180.682 269.664 178.54C267.697 176.398 266.272 173.002 261.628 173.361C256.983 173.72 252.338 176.398 246.086 184.789C239.834 193.181 232.151 202.821 231.974 209.07C231.798 215.32 234.117 219.781 238.585 220.498C243.054 221.216 248.588 217.821 248.588 217.821C248.588 217.821 255.734 222.823 259.302 221.034C262.876 219.251 279.023 182.053 279.023 182.053V182.058Z" fill="#263238" stroke="#263238" stroke-linejoin="round"/>
<path d="M313.551 191.067L279.023 182.059C272.444 178.867 261.938 184.651 255.552 194.971C249.531 204.712 249.332 215.01 254.861 218.823L281.482 242.67L297.324 250.505L327.245 195.892L313.551 191.067Z" fill="#A8ABDA" stroke="#263238" stroke-linejoin="round"/>
<path d="M327.245 195.891L313.551 191.066L305.033 188.688C295.947 192.63 287.546 201.166 282.778 212.509C278.364 223.01 277.983 233.726 280.951 242.145L281.487 242.67L297.329 250.504L327.25 195.891H327.245Z" fill="#A8ABDA" stroke="#263238" stroke-linejoin="round"/>
<path d="M151.249 194.307C157.788 186.226 158.296 175.8 152.384 171.02C146.472 166.24 136.379 168.915 129.84 176.995C123.301 185.076 122.793 195.501 128.705 200.282C134.617 205.062 144.71 202.387 151.249 194.307Z" fill="#A8ABDA" stroke="#263238" stroke-linejoin="round"/>
<path d="M151.249 194.316C156.489 187.841 157.85 179.867 155.15 174.491C150.687 171.272 142.415 174.491 136.463 181.843C130.388 189.352 129.027 198.316 133.42 201.867C133.779 202.156 134.165 202.397 134.577 202.601C140.063 203.109 146.567 200.094 151.249 194.311V194.316Z" fill="#263238" stroke="#263238" stroke-linejoin="round"/>
<path d="M165.12 184.008C165.12 184.008 172.668 182.08 177.972 177.909C183.271 173.731 186.973 170.02 186.973 170.02L182.478 167.61C182.478 167.61 170.424 179.194 158.702 180.795L165.125 184.008H165.12Z" fill="#A8ABDA" stroke="#263238" stroke-linejoin="round"/>
<path d="M327.717 231.659C335.981 216.578 335.776 200.572 327.259 195.909C318.742 191.246 305.138 199.692 296.875 214.773C288.611 229.855 288.816 245.861 297.333 250.524C305.85 255.187 319.454 246.741 327.717 231.659Z" fill="#263238" stroke="#263238" stroke-linejoin="round"/>
<path d="M325.528 230.461C332.617 217.522 332.44 203.789 325.133 199.788C317.825 195.787 306.154 203.033 299.064 215.972C291.974 228.911 292.151 242.644 299.459 246.645C306.767 250.646 318.438 243.4 325.528 230.461Z" fill="#6E6E6E" stroke="#263238" stroke-linejoin="round"/>
<path d="M319.209 198.761C312.458 199.591 304.433 206.13 299.054 215.952C293.606 225.902 292.454 236.312 295.534 242.417C302.285 241.587 310.31 235.049 315.689 225.227C321.137 215.277 322.289 204.866 319.209 198.761Z" fill="white" stroke="#263238" stroke-linejoin="round"/>
<path d="M225.021 176.437L199.75 163.884L190.289 167.451L213.931 181.53L225.021 176.437Z" fill="#263238" stroke="#263238" stroke-linejoin="round"/>
<path d="M212.629 180.354L207.807 177.489C207.807 177.489 202.595 185.046 196.862 188.821C191.13 192.596 184.481 195.205 184.481 195.205L206.506 210.708L212.629 180.354Z" fill="#A8ABDA" stroke="#263238" stroke-linejoin="round"/>
<path d="M213.931 181.528L212.629 180.355C212.629 180.355 209.629 185.957 204.159 190.776C198.689 195.596 189.694 198.595 189.694 198.595L206.505 210.709L218.104 194.032L213.936 181.528H213.931Z" fill="#263238" stroke="#263238" stroke-linejoin="round"/>
<path d="M215.618 198.45C212.581 196.243 211.916 190.663 214.258 185.147C216.867 179 222.203 175.272 226.178 176.82C226.703 177.023 222.872 174.79 222.819 174.774L222.304 174.624C218.42 173.703 213.513 177.366 211.049 183.198C208.756 188.607 209.323 194.08 212.168 196.393L212.131 196.501L215.613 198.45H215.618Z" fill="#A8ABDA" stroke="#263238" stroke-linejoin="round"/>
<path d="M228.507 191.11C231.24 185.016 230.302 178.662 226.411 176.919C222.521 175.175 217.151 178.701 214.418 184.795C211.685 190.889 212.623 197.243 216.513 198.986C220.403 200.73 225.773 197.203 228.507 191.11Z" fill="#263238" stroke="#263238" stroke-linejoin="round"/>
<path d="M194.644 198.007L151.598 176.404C151.598 176.404 146.417 175.692 141.06 180.688C135.702 185.69 126.054 205.687 124.446 212.472C122.839 219.257 124.446 223.9 127.661 226.937C130.875 229.973 154.63 252.288 157.668 253.542C160.705 254.789 162.13 254.971 162.671 254.971C163.212 254.971 210.181 228.725 212.147 224.8C214.113 220.874 215.361 213.73 213.577 210.335C211.793 206.94 194.644 198.018 194.644 198.018V198.007Z" fill="#A8ABDA" stroke="#263238" stroke-linejoin="round"/>
<path opacity="0.48" d="M146.412 179.765L180.678 197.769C180.678 197.769 183.533 196.013 186.608 196.232L150.585 178.009C150.585 178.009 148.828 177.569 146.412 179.765Z" fill="white"/>
<path d="M197.521 199.544L197.323 199.79C197.323 199.79 190.535 195.324 184.106 198.896C177.677 202.467 176.424 209.071 174.816 211.93C173.209 214.785 163.384 219.61 158.739 231.033C154.673 241.042 154.303 248.453 157.882 253.616C160.769 254.783 162.146 254.96 162.671 254.96C163.196 254.96 210.181 228.714 212.147 224.788C214.113 220.863 215.361 213.719 213.577 210.324C212.254 207.807 202.482 202.248 197.521 199.544Z" fill="#263238" stroke="#263238" stroke-linejoin="round"/>
<path d="M146.765 182.07C145.892 182.745 145.045 183.58 144.279 184.614C140.17 190.151 131.24 207.111 128.92 213.537C126.6 219.964 127.489 224.071 129.097 227.284" stroke="#263238" stroke-linejoin="round"/>
<path d="M154.817 179.256C154.817 179.256 152.428 179.192 149.626 180.392" stroke="#263238" stroke-linejoin="round"/>
<path d="M151.731 239.156C151.506 242.594 151.865 245.497 152.133 247.639" stroke="#263238" stroke-linejoin="round"/>
<path d="M173.734 202.489C171.816 206.13 171.382 209.745 169.641 211.753C167.322 214.431 158.927 218.897 154.817 227.466C153.307 230.62 152.471 233.608 152.048 236.334" stroke="#263238" stroke-linejoin="round"/>
<path d="M185.001 194.435C185.001 194.435 180.538 194.259 176.247 198.902C176.011 199.159 175.786 199.421 175.572 199.684" stroke="#263238" stroke-linejoin="round"/>
<path d="M225.556 227.085L189.207 216.712C181.797 213.044 169.968 219.69 162.779 231.562C155.996 242.766 155.776 254.612 162.002 258.992L189.448 286.427L202.504 295.022L239.373 234.128L225.551 227.085H225.556Z" fill="#A8ABDA" stroke="#263238" stroke-linejoin="round"/>
<path d="M239.378 234.129L225.556 227.086L219.063 225.233C205.991 227.788 193.348 238.397 186.994 253.74C183.163 262.999 182.247 272.472 183.822 280.805L189.453 286.433L202.509 295.029L239.378 234.134V234.129Z" fill="#A8ABDA" stroke="#263238" stroke-linejoin="round"/>
<path d="M239.946 273.987C229.767 290.803 213.004 300.223 202.509 295.023C192.014 289.823 191.762 271.979 201.941 255.163C212.12 238.348 228.883 228.928 239.378 234.128C249.873 239.328 250.125 257.172 239.946 273.987Z" fill="#263238" stroke="#263238" stroke-linejoin="round"/>
<path d="M237.246 272.654C228.508 287.081 214.129 295.162 205.123 290.707C196.117 286.246 195.898 270.935 204.636 256.503C213.374 242.07 227.753 233.994 236.759 238.45C245.764 242.911 245.984 258.222 237.246 272.654Z" fill="#6E6E6E" stroke="#263238" stroke-linejoin="round"/>
<path d="M229.478 237.33C221.158 238.256 211.273 245.545 204.641 256.501C197.923 267.598 196.508 279.208 200.302 286.009C208.622 285.083 218.506 277.794 225.138 266.837C231.857 255.741 233.271 244.131 229.478 237.33Z" fill="white" stroke="#263238" stroke-linejoin="round"/>
<path d="M180.372 166.909L198.78 176.109C198.78 176.109 218.806 174.818 227.362 168.521V167.739L207.823 159.481C207.823 159.481 202.654 162.55 196.037 164.809C189.415 167.069 180.372 166.909 180.372 166.909Z" fill="#A8ABDA" stroke="#263238" stroke-linejoin="round"/>
<path d="M180.372 166.907V166.125L198.786 175.326V176.113L180.372 166.907Z" fill="#A8ABDA" stroke="#263238" stroke-linejoin="round"/>
<path d="M180.372 166.125L198.78 175.325C198.78 175.325 218.806 174.035 227.362 167.737L207.823 158.697C207.823 158.697 202.653 161.766 196.037 164.026C189.415 166.286 180.372 166.125 180.372 166.125Z" fill="#A8ABDA" stroke="#263238" stroke-linejoin="round"/>
<path d="M192.785 165.87L206.297 172.339L215.024 170.513L201.373 163.76C201.373 163.76 196.305 165.731 192.791 165.87H192.785Z" fill="#263238" stroke="#263238" stroke-linejoin="round"/>
<path d="M189.405 180.167L199.3 185.935" stroke="#A8ABDA" stroke-linejoin="round"/>
<path d="M254.545 170.38C254.545 170.38 249.595 170.583 245.063 175.944C240.53 181.305 227.539 199.438 225.685 203.968C223.831 208.499 225.888 213.447 229.601 215.3" stroke="#263238" stroke-linejoin="round"/>
<path d="M201.266 207.801C200.859 208.679 200.109 209.198 199.594 208.957C199.08 208.716 198.989 207.811 199.396 206.933C199.803 206.055 200.553 205.535 201.068 205.776C201.582 206.017 201.673 206.922 201.266 207.801Z" fill="#6E6E6E" stroke="#263238" stroke-linejoin="round"/>
<path d="M246.413 192.035C246.006 192.913 245.256 193.433 244.741 193.192C244.227 192.951 244.136 192.046 244.543 191.167C244.95 190.289 245.7 189.77 246.214 190.011C246.729 190.252 246.82 191.157 246.413 192.035Z" fill="#6E6E6E" stroke="#263238" stroke-linejoin="round"/>
<path opacity="0.48" d="M257.256 202.515L292.256 219.068C292.256 219.068 295.331 212.481 297.088 208.968L257.551 199.307C257.551 199.307 256.892 198.424 256.27 199.393C255.568 200.486 256.077 201.958 257.256 202.515Z" fill="white"/>
<path opacity="0.48" d="M162.746 238.374L196.048 263.416C196.048 263.416 199.043 257.22 200.757 253.937L163.057 235.092C163.057 235.092 162.436 234.026 161.83 234.899C161.15 235.884 161.627 237.539 162.741 238.38L162.746 238.374Z" fill="white"/>
<path opacity="0.48" d="M215.093 156.417L255.477 173.757L258.976 172.59L218.592 154.955C218.592 154.955 215.677 155.1 215.093 156.412V156.417Z" fill="white"/>
</svg>
