<svg width="41" height="55" viewBox="0 0 41 55" fill="none" xmlns="http://www.w3.org/2000/svg">
<g filter="url(#filter0_d_357_1362)">
<path d="M4 1C4 0.447715 4.44772 0 5 0H36C36.5523 0 37 0.447715 37 1V46.7899C37 47.6501 35.986 48.1089 35.3399 47.5411L21.1601 35.0801C20.7826 34.7483 20.2174 34.7483 19.8399 35.0801L5.66012 47.5411C5.01399 48.1089 4 47.6501 4 46.7899V1Z" fill="#9EA5AD"/>
</g>
<path d="M16.179 26V23.7841L21.3565 18.9901C21.7969 18.5639 22.1662 18.1804 22.4645 17.8395C22.7675 17.4986 22.9972 17.1648 23.1534 16.8381C23.3097 16.5066 23.3878 16.1491 23.3878 15.7656C23.3878 15.3395 23.2907 14.9725 23.0966 14.6648C22.9025 14.3523 22.6373 14.1132 22.3011 13.9474C21.965 13.777 21.5838 13.6918 21.1577 13.6918C20.7126 13.6918 20.3243 13.7817 19.9929 13.9616C19.6615 14.1416 19.4058 14.3996 19.2259 14.7358C19.0459 15.072 18.956 15.4721 18.956 15.9361H16.0369C16.0369 14.9844 16.2524 14.1581 16.6832 13.4574C17.1141 12.7566 17.7178 12.2145 18.4943 11.831C19.2708 11.4474 20.1657 11.2557 21.179 11.2557C22.2206 11.2557 23.1274 11.4403 23.8991 11.8097C24.6757 12.1742 25.2794 12.6809 25.7102 13.3295C26.1411 13.9782 26.3565 14.7216 26.3565 15.5597C26.3565 16.1089 26.2476 16.651 26.0298 17.1861C25.8168 17.7211 25.4356 18.3153 24.8864 18.9688C24.3371 19.6174 23.563 20.3963 22.5639 21.3054L20.4403 23.3864V23.4858H26.5483V26H16.179Z" fill="white"/>
<defs>
<filter id="filter0_d_357_1362" x="0" y="-1" width="41" height="55.792" filterUnits="userSpaceOnUse" color-interpolation-filters="sRGB">
<feFlood flood-opacity="0" result="BackgroundImageFix"/>
<feColorMatrix in="SourceAlpha" type="matrix" values="0 0 0 0 0 0 0 0 0 0 0 0 0 0 0 0 0 0 127 0" result="hardAlpha"/>
<feOffset dy="3"/>
<feGaussianBlur stdDeviation="2"/>
<feComposite in2="hardAlpha" operator="out"/>
<feColorMatrix type="matrix" values="0 0 0 0 0 0 0 0 0 0 0 0 0 0 0 0 0 0 0.1 0"/>
<feBlend mode="normal" in2="BackgroundImageFix" result="effect1_dropShadow_357_1362"/>
<feBlend mode="normal" in="SourceGraphic" in2="effect1_dropShadow_357_1362" result="shape"/>
</filter>
</defs>
</svg>
