<svg width="41" height="55" viewBox="0 0 41 55" fill="none" xmlns="http://www.w3.org/2000/svg">
<g filter="url(#filter0_d_357_1378)">
<path d="M4 1C4 0.447715 4.44772 0 5 0H36C36.5523 0 37 0.447715 37 1V46.7899C37 47.6501 35.986 48.1089 35.3399 47.5411L21.1601 35.0801C20.7826 34.7483 20.2174 34.7483 19.8399 35.0801L5.66012 47.5411C5.01399 48.1089 4 47.6501 4 46.7899V1Z" fill="#CB9379"/>
</g>
<path d="M21.5554 26.1989C20.4948 26.1989 19.5502 26.0166 18.7216 25.652C17.8977 25.2827 17.2467 24.776 16.7685 24.1321C16.295 23.4834 16.0511 22.7353 16.0369 21.8878H19.1335C19.1525 22.2429 19.2685 22.5554 19.4815 22.8253C19.6993 23.0904 19.9882 23.2964 20.348 23.4432C20.7079 23.59 21.1127 23.6634 21.5625 23.6634C22.0312 23.6634 22.4455 23.5805 22.8054 23.4148C23.1652 23.2491 23.447 23.0194 23.6506 22.7259C23.8542 22.4323 23.956 22.0937 23.956 21.7102C23.956 21.322 23.8471 20.9787 23.6293 20.6804C23.4162 20.3774 23.1084 20.1406 22.706 19.9702C22.3082 19.7997 21.8348 19.7145 21.2855 19.7145H19.929V17.456H21.2855C21.7495 17.456 22.1591 17.3755 22.5142 17.2145C22.8741 17.0535 23.1534 16.831 23.3523 16.5469C23.5511 16.258 23.6506 15.9219 23.6506 15.5384C23.6506 15.1738 23.563 14.8542 23.3878 14.5795C23.2173 14.3002 22.9759 14.0824 22.6634 13.9261C22.3556 13.7699 21.9957 13.6918 21.5838 13.6918C21.1671 13.6918 20.786 13.7675 20.4403 13.919C20.0947 14.0658 19.8177 14.2765 19.6094 14.5511C19.401 14.8258 19.2898 15.1477 19.2756 15.517H16.3281C16.3423 14.679 16.5814 13.9403 17.0455 13.3011C17.5095 12.6619 18.1345 12.1624 18.9205 11.8026C19.7112 11.438 20.6037 11.2557 21.598 11.2557C22.6018 11.2557 23.4801 11.438 24.233 11.8026C24.9858 12.1671 25.5705 12.6596 25.9872 13.2798C26.4086 13.8954 26.617 14.5866 26.6122 15.3537C26.617 16.1681 26.3636 16.8475 25.8523 17.392C25.3456 17.9366 24.6851 18.2822 23.8707 18.429V18.5426C24.9408 18.6799 25.7552 19.0516 26.3139 19.6577C26.8774 20.259 27.1567 21.0118 27.152 21.9162C27.1567 22.7448 26.9176 23.4811 26.4347 24.125C25.9564 24.7689 25.2959 25.2756 24.4531 25.6449C23.6103 26.0142 22.6444 26.1989 21.5554 26.1989Z" fill="white"/>
<defs>
<filter id="filter0_d_357_1378" x="0" y="-1" width="41" height="55.792" filterUnits="userSpaceOnUse" color-interpolation-filters="sRGB">
<feFlood flood-opacity="0" result="BackgroundImageFix"/>
<feColorMatrix in="SourceAlpha" type="matrix" values="0 0 0 0 0 0 0 0 0 0 0 0 0 0 0 0 0 0 127 0" result="hardAlpha"/>
<feOffset dy="3"/>
<feGaussianBlur stdDeviation="2"/>
<feComposite in2="hardAlpha" operator="out"/>
<feColorMatrix type="matrix" values="0 0 0 0 0 0 0 0 0 0 0 0 0 0 0 0 0 0 0.1 0"/>
<feBlend mode="normal" in2="BackgroundImageFix" result="effect1_dropShadow_357_1378"/>
<feBlend mode="normal" in="SourceGraphic" in2="effect1_dropShadow_357_1378" result="shape"/>
</filter>
</defs>
</svg>
