<svg width="79" height="79" viewBox="0 0 79 79" fill="none" xmlns="http://www.w3.org/2000/svg">
<g clip-path="url(#clip0_3195_1962)">
<path d="M39.501 17.5767C40.3796 17.5769 41.0381 18.2366 41.0381 19.1157V33.4204L41.3994 33.5249C43.3318 34.0861 44.8459 35.6514 45.4795 37.6147L45.5918 37.9614H45.9551L59.8848 37.9604C60.7637 37.9606 61.4229 38.6205 61.4229 39.4995C61.4228 40.3785 60.7637 41.0385 59.8848 41.0386H45.5811L45.4756 41.3979C44.7233 43.9678 42.3387 45.7943 39.501 45.7944C36.04 45.7944 33.2061 42.9605 33.2061 39.4995C33.2061 36.7346 35.029 34.3405 37.6133 33.521L37.9619 33.4106V19.1157C37.9619 18.2367 38.622 17.5767 39.501 17.5767ZM39.501 36.2827C37.7306 36.2827 36.2832 37.7292 36.2832 39.5005C36.2835 41.2706 37.7299 42.7173 39.501 42.7173C41.2711 42.7172 42.7185 41.2714 42.7188 39.5005C42.7188 37.7296 41.2715 36.2822 39.501 36.2827Z" fill="#ADABB5" stroke="white"/>
<path d="M39.4985 0.590851C60.8983 0.590851 78.4087 18.0347 78.4087 39.501C78.4085 40.3799 77.7485 41.0391 76.8696 41.0391C75.9909 41.0389 75.3317 40.3797 75.3315 39.501C75.3315 19.7246 59.2759 3.66809 39.4995 3.668C19.7233 3.668 3.66748 19.7244 3.66748 39.501C3.6677 59.2773 19.7232 75.333 39.4995 75.333C48.9402 75.333 57.8313 71.6795 64.5161 65.0645L65.3804 64.209H59.6118C58.7331 64.2088 58.0739 63.5497 58.0737 62.6709C58.0737 61.792 58.733 61.1321 59.6118 61.1319H59.6128L69.397 61.1309C70.276 61.1309 70.9351 61.7909 70.9351 62.67L70.936 72.3867C70.9359 73.2656 70.2767 73.9247 69.3979 73.9248C68.519 73.9248 67.859 73.2656 67.8589 72.3867V66.1514L66.937 67.0733L66.936 67.0752C59.6933 74.385 49.9015 78.4102 39.5005 78.4102C18.0341 78.4099 0.591319 60.9667 0.591309 39.5C0.591309 18.0343 18.0325 0.591722 39.4976 0.589874L39.4985 0.590851Z" fill="#ADABB5" stroke="white"/>
<path d="M77.6195 49.9632C77.6195 51.2013 76.6154 52.2054 75.3774 52.2054C74.1386 52.2054 73.1353 51.2013 73.1353 49.9632C73.1353 48.7252 74.1387 47.7211 75.3774 47.7211C76.6155 47.7211 77.6195 48.7252 77.6195 49.9632Z" fill="#ADABB5"/>
</g>
<defs>
<clipPath id="clip0_3195_1962">
<rect width="79" height="79" fill="white"/>
</clipPath>
</defs>
</svg>
